# xmcd
#
# Track frame offsets: 
#        150
#        18540
#        39918
#        69520
#
# Disc length: 1376 seconds
#
# Revision: 0
# Processed by: cddbd v1.5.2PL0 Copyright (c) Steve Scherf et al.
# Submitted via: ExactAudioCopyFreeDBPlugin 1.0
#
DISCID=2a055e04
DTITLE=Ai Morioku and Ja Rule - Letter
DYEAR=2005
DGENRE=Hip-Hop
TTITLE0=Letter (Feat. Ja Rule)
TTITLE1=Ai Morioku - Promise...
TTITLE2=Ai Morioku - Letter (Instrument Version)
TTITLE3=N/A - Data
EXTD=
EXTT0=
EXTT1=
EXTT2=
EXTT3=
PLAYORDER=
